<?xml version="1.0" encoding="UTF-8" standalone="no"?>
<svg width="456" height="456" viewBox="0 0 456 456" xmlns="http://www.w3.org/2000/svg">
  <!-- Splash: automaton graph, basic shapes only -->

  <!-- Transition arrows -->
  <line x1="200" y1="160" x2="280" y2="160" stroke="#45475a" stroke-width="4"/>
  <polygon points="280,160 268,153 268,167" fill="#45475a"/>

  <line x1="310" y1="198" x2="260" y2="278" stroke="#45475a" stroke-width="4"/>
  <polygon points="260,278 270,272 255,268" fill="#45475a"/>

  <path d="M 200,300 Q 125,240 162,198" fill="none" stroke="#45475a" stroke-width="4"/>
  <polygon points="162,198 156,211 168,207" fill="#45475a"/>

  <!-- Start arrow -->
  <line x1="80" y1="170" x2="118" y2="170" stroke="#89b4fa" stroke-width="5"/>
  <polygon points="118,170 106,163 106,177" fill="#89b4fa"/>

  <!-- q0 -->
  <circle cx="160" cy="170" r="40" fill="#313244"/>
  <circle cx="160" cy="170" r="40" fill="none" stroke="#89b4fa" stroke-width="4.5"/>

  <!-- q1 -->
  <circle cx="310" cy="170" r="40" fill="#313244"/>
  <circle cx="310" cy="170" r="40" fill="none" stroke="#cdd6f4" stroke-width="3.5"/>

  <!-- q2 (accept) -->
  <circle cx="228" cy="310" r="40" fill="#313244"/>
  <circle cx="228" cy="310" r="40" fill="none" stroke="#a6e3a1" stroke-width="4.5"/>
  <circle cx="228" cy="310" r="31" fill="none" stroke="#f9e2af" stroke-width="3"/>
</svg>