<?xml version="1.0" encoding="UTF-8" standalone="no"?>
<svg width="456" height="456" viewBox="0 0 456 456" xmlns="http://www.w3.org/2000/svg">
  <!-- Transition lines -->
  <line x1="188" y1="165" x2="268" y2="165" stroke="#45475a" stroke-width="2.5"/>
  <polygon points="268,165 260,160 260,170" fill="#45475a"/>

  <line x1="295" y1="200" x2="253" y2="270" stroke="#45475a" stroke-width="2.5"/>
  <polygon points="253,270 261,264 249,263" fill="#45475a"/>

  <path d="M 200 290 Q 135 235 163 192" fill="none" stroke="#45475a" stroke-width="2.5"/>
  <polygon points="163,192 158,202 169,199" fill="#45475a"/>

  <!-- Start arrow -->
  <line x1="92" y1="175" x2="118" y2="175" stroke="#89b4fa" stroke-width="3"/>
  <polygon points="118,175 110,170 110,180" fill="#89b4fa"/>

  <!-- q0 -->
  <circle cx="155" cy="175" r="34" fill="#313244" stroke="#89b4fa" stroke-width="3"/>
  <text x="155" y="182" fill="#cdd6f4" font-family="monospace" font-size="22"
        text-anchor="middle" font-weight="bold">q0</text>

  <!-- q1 -->
  <circle cx="305" cy="175" r="34" fill="#313244" stroke="#cdd6f4" stroke-width="2.5"/>
  <text x="305" y="182" fill="#cdd6f4" font-family="monospace" font-size="22"
        text-anchor="middle" font-weight="bold">q1</text>

  <!-- q2 (accept) -->
  <circle cx="228" cy="300" r="34" fill="#313244" stroke="#a6e3a1" stroke-width="3"/>
  <circle cx="228" cy="300" r="27" fill="none" stroke="#f9e2af" stroke-width="2"/>
  <text x="228" y="307" fill="#cdd6f4" font-family="monospace" font-size="22"
        text-anchor="middle" font-weight="bold">q2</text>
</svg>